<?xml version="1.0"?>
<svg width="283.46399" height="359.05466" xmlns="http://www.w3.org/2000/svg" xmlns:svg="http://www.w3.org/2000/svg" version="1.1" xml:space="preserve">
 <metadata id="metadata8">image/svg+xml</metadata>
 <defs id="defs6">
  <clipPath clipPathUnits="userSpaceOnUse" id="clipPath18">
   <path d="m12.75,261.79l212.6,0l0,-269.29l-212.6,0l0,269.29z" id="path16"/>
  </clipPath>
 </defs>
 <g class="layer">
  <title>Layer 1</title>
  <g id="svg_2">
   <g id="g86" transform="matrix(2.10483 0 0 -2.26765 -117.215 102.641)">
    <path d="m124.76,-95.39c-1.66,1.1 -2.52,2.79 -1.82,3.9c1.67,2.67 3.86,4.96 5.72,7.5c0.62,0.85 2.03,0.65 2.89,0.09c0.55,-0.35 1.08,-0.8 1.48,-1.31c1.22,-1.58 2.26,-3.32 3.59,-4.81c1.88,-2.13 1.42,-4.12 -0.08,-6.07c-1.05,-1.38 -2.23,-2.7 -3.51,-3.88c-1.31,-1.23 -2.28,-1.15 -3.77,-0.08c-2.93,2.11 -3.02,2.38 -1.83,5.73c0.19,0.55 0.4,1.11 0.65,1.64c0.72,1.54 1.21,1.75 2.41,1.06c1.62,-0.94 1.93,-1.83 1.01,-3.1c-0.49,-0.67 -1.06,-1.28 -1.61,-1.91c-0.51,-0.57 -0.72,-1.26 -0.05,-1.71c0.34,-0.23 1.22,-0.17 1.52,0.12c1.27,1.2 2.52,2.45 3.53,3.86c0.38,0.52 0.45,1.79 0.07,2.25c-1.15,1.39 -2.46,2.75 -3.94,3.75c-1.59,1.09 -3.22,0.57 -4.27,-1.14c-0.64,-1.04 -1.03,-2.26 -1.44,-3.42c-0.25,-0.69 -0.33,-1.43 -0.55,-2.47" fill="#fabb18" fill-rule="nonzero" id="path88"/>
   </g>
   <g id="g90" transform="matrix(2.10483 0 0 -2.26765 -100.95 3.13578)">
    <path d="m147.95,-114.2c0.53,-2.63 1.01,-4.99 1.56,-7.73c-2.48,0.57 -4.61,1.11 -6.78,1.55c-1.28,0.26 -1.1,1.32 -1.35,2.15c-0.28,0.93 0.11,1.51 0.98,1.85c1.78,0.69 3.57,1.39 5.59,2.18" fill="#fabb18" fill-rule="nonzero" id="path92"/>
   </g>
   <g id="g94" transform="matrix(2.10483 0 0 -2.26765 -128.537 30.0213)">
    <path d="m108.63,-109.12c0.63,-0.31 0.69,-0.87 0.77,-1.4c0.18,-1.2 -0.32,-2.53 -1.57,-3.98c-0.53,-0.62 -0.95,-1.23 -1.43,-1.85c-1.46,0.82 -0.12,5.24 2.23,7.23" fill="#25295d" fill-rule="nonzero" id="path96"/>
   </g>
   <g id="g98" transform="matrix(2.10483 0 0 -2.26765 -126.991 130.05)">
    <path d="m110.83,-90.21c0.66,-0.24 1.23,-0.62 1.61,-1.41c-1,-0.14 -1.81,-0.28 -2.64,-0.34c-0.29,-0.02 -0.83,0.11 -0.86,0.26c-0.07,0.33 -0.02,0.82 0.19,1.07c0.43,0.5 1.07,0.65 1.7,0.42" fill="#3968bb" fill-rule="nonzero" id="path100"/>
   </g>
   <g id="g102" transform="matrix(2.10483 0 0 -2.26765 -99.1006 53.238)">
    <path d="m150.58,-104.73c0.42,-2.42 0.8,-4.59 1.22,-7.01c-2.18,0.34 -4.1,0.61 -6.01,0.94c-1.26,0.21 -0.74,1.54 -0.98,2.38c-0.23,0.78 0.54,0.97 0.98,1.22c1.51,0.83 3.05,1.58 4.79,2.47" fill="#b10f6d" fill-rule="nonzero" id="path104"/>
   </g>
   <g id="g106" transform="matrix(2.10483 0 0 -2.26765 -101.964 -354.966)">
    <path d="m146.5,-181.88c-0.7,-0.08 -1.42,-0.24 -2.35,-0.4c1.58,-3.17 0.31,-6.35 -1.58,-9.62c0.18,0.01 0.32,-0.03 0.43,0.03c3.33,1.81 5.85,4.63 7.23,8.8c0.35,1.06 0.27,1.15 -0.55,1.25c-0.13,0.01 -0.25,0.04 -0.39,0.04c-1.16,0.03 -1,0.1 -1.25,-1.14c-0.12,-0.58 -0.37,-1.17 -0.6,-1.74c-0.06,-0.15 -0.33,-0.35 -0.43,-0.32c-0.23,-0.03 -0.2,0.28 -0.18,0.44c0.09,0.55 0.26,1.1 0.35,1.65c0.17,1.05 0.13,1.11 -0.68,1.01" fill="#b10f6d" fill-rule="nonzero" id="path108"/>
   </g>
   <g id="g110" transform="matrix(2.10483 0 0 -2.26765 -99.4773 46.5898)">
    <path d="m150.05,-105.98c-0.02,-0.18 -0.04,-0.37 -0.07,-0.57c-2.27,-0.66 -4.55,-1.34 -7.03,-2.07c-0.34,2.15 -0.63,4.08 -0.98,6.34c3.08,-0.95 5.83,-1.8 8.08,-3.7" fill="#f36521" fill-rule="nonzero" id="path112"/>
   </g>
   <g id="g114" transform="matrix(2.10483 0 0 -2.26765 -124.192 -26.4871)">
    <path d="m114.82,-119.8c1.09,-0.43 1.27,-0.93 0.68,-1.93c-1.81,-3.07 -3.58,-6.16 -5.44,-9.19c-2.24,-3.67 -5.98,-0.67 -4.85,-0.87c0.92,-0.15 1.7,0.14 2.4,0.69c1.69,1.32 2.64,3.15 3.16,5.31c0.3,1.26 0.61,2.53 0.98,3.77c0.17,0.56 0.43,1.11 0.76,1.58c0.55,0.77 1.46,0.98 2.31,0.64" fill="#f36521" fill-rule="nonzero" id="path116"/>
   </g>
   <g id="g118" transform="matrix(2.10483 0 0 -2.26765 -107.329 -81.095)">
    <path d="m138.86,-130.12c0.78,-1.02 0.78,-1.04 0.11,-1.91c-0.51,-0.64 -1.06,-1.24 -1.54,-1.9c-0.36,-0.5 -0.75,-0.71 -1.36,-0.43c-0.8,0.38 -1.62,0.74 -2.59,1.16c0.54,0.71 1.05,1.35 1.52,2.01c0.78,1.08 0.78,1.46 -0.13,2.52c-0.77,0.9 -1.57,1.74 -2.52,2.78c1.95,-0.34 3.7,-0.56 4.96,-2.31c0.48,-0.67 1.05,-1.26 1.55,-1.92" fill="#f36521" fill-rule="nonzero" id="path120"/>
   </g>
   <g id="g122" transform="matrix(2.10483 0 0 -2.26765 -118.16 -69.4894)">
    <path d="m123.42,-127.92c0.49,0.74 0.61,1.58 0.11,2.44c-0.34,0.59 -0.88,0.9 -1.51,0.74c-0.61,-0.16 -0.9,-0.67 -0.94,-1.33c-0.05,-0.86 0.61,-0.89 1.18,-1c-0.42,-0.75 -1.01,-1.05 -1.76,-1.18c-1.31,-0.24 -2.62,-0.49 -3.89,-0.88c-1.89,-0.59 -3.24,-1.92 -4.1,-3.78c-0.3,-0.67 -0.3,-1.4 0.29,-1.99c0.54,-0.54 1.16,-0.52 1.76,-0.22c0.75,0.37 1.12,1.12 0.77,1.66c-0.48,0.76 -0.96,0.19 -1.66,-0.2c1.24,1.85 2.41,3.2 4.39,3.46c0.75,0.09 1.5,0.27 2.23,0.46c1.2,0.32 2.39,0.7 3.13,1.82m4.31,2.36c0.45,0.24 0.58,0.91 0.29,1.47c-0.29,0.55 -0.89,0.79 -1.35,0.54c-0.43,-0.23 -0.6,-0.97 -0.34,-1.45c0.26,-0.45 1.03,-0.76 1.4,-0.56m6.07,0.97c0.29,0.27 0.38,0.78 0.5,1.04c-0.48,0.91 -1.19,1.18 -1.75,0.85c-0.49,-0.28 -0.61,-0.73 -0.37,-1.28c0.25,-0.59 1.21,-0.99 1.62,-0.61m5.01,0.58c0.4,-0.44 0.35,-0.82 0.02,-1.2c-0.03,-0.04 -0.07,-0.07 -0.1,-0.11c-1.03,-1.77 -2.35,-2.44 -4.57,-2.05c-3.33,0.59 -6.49,-0.38 -9.41,-1.84c-4.12,-2.06 -7.65,-4.91 -10.32,-8.84c-0.11,-0.16 -0.25,-0.29 -0.47,-0.56c-1.3,1.41 -2.67,1.83 -4.21,1.22c-0.83,-0.33 -1.48,-0.9 -1.82,-1.75c-0.42,-1.05 -0.76,-2.15 -1.08,-3.24c-0.34,-1.15 -0.57,-2.35 -0.94,-3.48c-0.46,-1.41 -1.32,-2.52 -2.62,-3.14c-0.25,-0.12 -0.71,-0.11 -0.92,0.07c-0.18,0.15 -0.25,0.68 -0.14,0.93c2.02,4.87 3.74,9.91 6.98,14.05c2.88,3.68 6.11,6.96 9.99,9.34c4.6,2.84 9.66,4.59 15.33,4.19c0.78,-0.06 1.4,-0.28 1.94,-0.92c0.77,-0.9 1.55,-1.79 2.34,-2.67" fill="#ef3546" fill-rule="nonzero" id="path124"/>
   </g>
   <g id="g126" transform="matrix(2.10483 0 0 -2.26765 -106.823 -86.1726)">
    <path d="m139.58,-131.08c4.93,-3.66 8.72,-8.15 9.71,-14.62c-4.83,4.59 -6.02,5.47 -10.94,8.14c0.38,0.51 0.74,0.98 1.11,1.45c0.3,0.38 0.63,0.72 0.91,1.12c0.88,1.23 0.83,1.83 -0.19,3.07c-0.22,0.26 -0.45,0.52 -0.6,0.84" fill="#fabb18" fill-rule="nonzero" id="path128"/>
   </g>
   <g id="g130" transform="matrix(2.10483 0 0 -2.26765 -105.42 -373.237)">
    <path d="m141.58,-185.33c0.34,0.02 1.84,-0.03 2.05,-0.39c0.2,-0.34 -0.64,-0.61 -1.53,-1.03c-3.46,-1.88 -5.52,-4.97 -6.77,-8.74c-0.45,-1.37 -0.85,-2.78 -1.33,-4.38c-1.22,0.88 -2.22,1.62 -3.25,2.31c-0.64,0.43 -0.4,0.87 -0.25,1.22c0.6,1.36 1.16,2.76 1.92,4c1.88,3.07 4.59,5.22 7.93,6.64c0.39,0.16 0.79,0.34 1.23,0.37" fill="#f36521" fill-rule="nonzero" id="path132"/>
   </g>
   <g id="g134" transform="matrix(2.10483 0 0 -2.26765 -104.685 -26.5407)">
    <path d="m142.62,-119.81c2.16,-0.83 4.15,-1.71 5.79,-3.2c1.17,-1.07 0.91,-2.28 -0.5,-2.83c-1.72,-0.68 -3.47,-1.27 -5.39,-1.97c-0.44,2.64 -0.46,5.17 0.1,8" fill="#ef3546" fill-rule="nonzero" id="path136"/>
   </g>
   <g id="g138" transform="matrix(2.10483 0 0 -2.26765 -124.93 134.188)">
    <path d="m113.77,-89.43c0.05,-0.42 -0.09,-0.76 -0.28,-0.87c-0.15,-0.08 -0.29,0.27 -0.39,0.43c-0.52,0.8 -1.09,1.52 -1.58,2.35c-0.16,0.26 -0.5,0.63 -0.52,0.9c-0.01,0.36 0.23,0.72 0.45,0.89c0.22,0.16 0.67,0.12 0.88,0c1.44,-0.78 1.36,-2.26 1.44,-3.7" fill="#3968bb" fill-rule="nonzero" id="path140"/>
   </g>
   <g id="g142" transform="matrix(2.10483 0 0 -2.26765 -105.712 -13.0712)">
    <path d="m141.16,-117.26c0.05,-0.42 -0.09,-0.76 -0.28,-0.87c-0.15,-0.08 -0.29,0.27 -0.39,0.43c-0.52,0.8 -1.09,1.52 -1.58,2.35c-0.16,0.26 -0.5,0.63 -0.52,0.9c-0.01,0.36 0.23,0.72 0.45,0.89c0.22,0.16 0.67,0.12 0.88,0c1.44,-0.78 1.36,-2.26 1.44,-3.7" fill="#3968bb" fill-rule="nonzero" id="path144"/>
   </g>
   <g id="g146" transform="matrix(2.10483 0 0 -2.26765 -119.979 6.41926)">
    <path d="m120.83,-113.58c0.45,0.32 1.67,0.91 2.59,0.91c1.66,-0.02 2.87,-0.1 4.48,-0.41c1.29,-0.25 1.47,-1.26 0.53,-2.18c-0.29,-0.28 -0.67,-0.49 -1.03,-0.69c-10.41,-6 -17.99,-14.47 -22.36,-25.72c-0.38,-1.01 -0.83,-2 -1.34,-2.95c-0.5,-0.97 -1.27,-0.87 -1.7,-0.04c-0.49,0.95 -1.28,4.59 -0.43,10.25c0.18,1.27 1.2,1.71 2.38,1.79c0.75,0.05 1.53,-0.05 2.25,0.11c0.39,0.09 1.06,0.43 1.04,0.89c-0.01,0.45 -0.69,0.76 -1.07,0.81c-1.07,0.11 -2.15,0.03 -3.48,0.04c0.19,0.61 0.3,1.09 0.48,1.56c1.37,3.59 1.37,3.59 5.15,3.64c0.08,0 0.17,0 0.25,0c1.04,0.09 2.68,-0.51 2.99,0.77c0.26,1.07 -2.01,0.89 -2.93,1.1c-0.63,0.15 -1.31,0.04 -2.01,0.04c1.71,3.58 2.89,4.25 6.56,3.81c1.08,-0.14 2.17,-0.3 3.24,-0.26c0.45,0.02 1.27,0.27 1.32,0.78c0.04,0.54 -0.77,0.92 -1.23,1.03c-1.27,0.3 -2.59,0.41 -4.03,0.62c2.31,2.69 5.11,2.38 7.93,1.87c0.74,-0.13 1.42,-0.53 2.15,-0.65c0.42,-0.06 1.14,-0.06 1.34,0.36c0.2,0.42 0.07,1.07 -0.83,1.62c-0.37,0.29 -1.59,0.9 -2.24,0.9" fill="#25295d" fill-rule="nonzero" id="path148"/>
   </g>
   <g id="g150" transform="matrix(2.10483 0 0 -2.26765 -102.933 -372.194)">
    <path d="m145.12,-185.13c-0.44,0.52 -0.14,1.1 0.14,1.6c0.28,0.5 0.67,0.94 0.97,1.42c0.51,0.8 1.05,1.59 1.48,2.43c0.43,0.84 0.73,1.74 1.19,2.85c0.76,-2.51 1.37,-4.87 2.55,-7.02c0.44,2.73 -1.04,5.11 -1.39,7.89c0.45,-0.16 0.8,-0.22 1.09,-0.4c0.81,-0.51 1.58,-1.07 2.38,-1.6c0.42,-0.27 0.9,-0.75 1.35,-0.23c0.12,0.15 -0.23,0.85 -0.51,1.16c-0.6,0.67 -1.29,1.25 -2.04,1.97c0.73,0.1 1.33,0.16 1.91,0.28c0.45,0.09 0.91,0.33 0.75,0.84c-0.08,0.24 -0.59,0.46 -0.9,0.47c-1.14,0.03 -2.28,-0.03 -3.59,-0.06c0.17,0.35 0.26,0.58 0.4,0.78c0.92,1.39 1.85,2.78 2.81,4.14c0.23,0.34 0.55,0.88 0.99,0.54c0.27,-0.21 0.41,-0.87 0.3,-1.23c-0.19,-0.62 -0.65,-1.15 -0.97,-1.73c-0.41,-0.73 -0.25,-1.02 0.61,-1.12c0.57,-0.06 1.14,-0.1 1.7,-0.2c0.88,-0.16 1.69,-0.45 1.86,-1.5c0.16,-0.96 -0.64,-1.29 -1.21,-1.75c-0.33,-0.25 -0.71,-0.44 -1.17,-0.72c0.33,-0.29 0.57,-0.49 0.81,-0.7c0.41,-0.39 0.86,-0.76 1.22,-1.2c0.53,-0.64 0.66,-1.39 0.2,-2.13c-0.47,-0.74 -1.22,-0.95 -2.01,-0.76c-0.82,0.2 -1.61,0.56 -2.41,0.86c-0.22,0.07 -0.42,0.16 -0.87,0.34c0.2,-0.7 0.38,-1.18 0.48,-1.67c0.25,-1.21 0.51,-2.42 0.67,-3.65c0.05,-0.5 -0.08,-1.05 -0.25,-1.53c-0.43,-1.23 -1.65,-1.46 -2.42,-0.4c-0.52,0.72 -0.76,1.63 -1.13,2.45c-0.15,0.32 -0.35,0.62 -0.53,0.93c-0.25,-0.19 -0.49,-0.39 -0.75,-0.57c-0.62,-0.43 -1.21,-0.93 -1.88,-1.23c-0.65,-0.28 -1.36,-0.1 -1.83,0.45" fill="#25295d" fill-rule="nonzero" id="path152"/>
   </g>
   <g id="g154" transform="matrix(2.10483 0 0 -2.26765 -138.765 -23.7735)">
    <path d="m94.05,-119.28c-0.97,0.06 -1.66,0.82 -1.62,1.82c0.02,0.88 0.66,1.56 1.47,1.56c0.82,0.01 1.74,-0.92 1.74,-1.77c0.01,-0.91 -0.74,-1.66 -1.59,-1.61" fill="#fabb18" fill-rule="nonzero" id="path156"/>
   </g>
   <g id="g158" transform="matrix(2.10483 0 0 -2.26765 -144.777 -29.3328)">
    <path d="m85.48,-120.33c-0.97,0.06 -1.66,0.82 -1.62,1.82c0.02,0.88 0.66,1.56 1.47,1.56c0.82,0.01 1.74,-0.92 1.74,-1.77c0.01,-0.91 -0.74,-1.66 -1.59,-1.61" fill="#fabb18" fill-rule="nonzero" id="path160"/>
   </g>
   <g id="g162" transform="matrix(2.10483 0 0 -2.26765 -137.414 -38.2351)">
    <path d="m95.98,-122.02c-0.68,-0.09 -1.43,0.41 -1.1,1.35c0.11,0.31 0.53,0.71 0.95,0.89c0.52,0.22 1.11,-0.37 1.08,-0.98c-0.03,-0.63 -0.28,-1.17 -0.93,-1.26" fill="#fabb18" fill-rule="nonzero" id="path164"/>
   </g>
   <g id="g166" transform="matrix(2.10483 0 0 -2.26765 -135.979 -54.0949)">
    <path d="m98.02,-125.01c-0.08,-0.47 -0.55,-0.89 -1.1,-0.49c-0.18,0.14 -0.36,0.5 -0.4,0.82c-0.04,0.39 0.46,0.67 0.86,0.54c0.4,-0.14 0.71,-0.41 0.64,-0.87" fill="#fabb18" fill-rule="nonzero" id="path168"/>
   </g>
   <g id="g170" transform="matrix(2.10483 0 0 -2.26765 -143.873 -15.2439)">
    <path d="m86.77,-117.67c-0.68,-0.09 -1.43,0.41 -1.1,1.35c0.11,0.31 0.53,0.71 0.95,0.89c0.52,0.22 1.11,-0.37 1.08,-0.98c-0.03,-0.63 -0.28,-1.17 -0.93,-1.26" fill="#fabb18" fill-rule="nonzero" id="path172"/>
   </g>
   <g id="g174" transform="matrix(2.10483 0 0 -2.26765 -144.336 -49.5403)">
    <path d="m86.11,-124.15c-0.31,-0.37 -0.93,-0.47 -1.22,0.17c-0.09,0.22 -0.06,0.63 0.07,0.92c0.17,0.36 0.75,0.34 1.03,0.01c0.28,-0.34 0.42,-0.74 0.12,-1.1" fill="#fabb18" fill-rule="nonzero" id="path176"/>
   </g>
   <g id="g178" transform="matrix(2.10483 0 0 -2.26765 -118.828 40.9141)">
    <path d="m122.47,-107.06c1.01,0.62 2.13,0.47 2.8,-0.31c0.73,-0.84 0.68,-1.68 -0.36,-2.7c-1.46,-1.43 -4.52,-5.31 -4.87,-5.19c-0.39,0.13 0.09,3.96 0.37,5.08c0.31,1.27 0.89,2.41 2.06,3.12" fill="#3968bb" fill-rule="nonzero" id="path180"/>
   </g>
   <g id="g182" transform="matrix(2.10483 0 0 -2.26765 -122.843 66.6472)">
    <path d="m116.74,-102.19c0.23,1.53 1.07,2.44 2.09,2.29c1.22,-0.17 1.92,-1.5 1.52,-3.05c-0.43,-1.67 -1.95,-5.89 -2.36,-5.83c-0.34,0.05 -0.41,0.59 -0.5,0.92c-0.52,1.85 -1.05,3.71 -0.75,5.67" fill="#3968bb" fill-rule="nonzero" id="path184"/>
   </g>
   <g id="g186" transform="matrix(2.10483 0 0 -2.26765 -123.034 122.894)">
    <path d="m116.47,-91.56c-0.24,-0.38 -1.45,0.28 -1.95,0.89c-1.31,1.6 -1.75,3.02 -1.84,5.04c-0.06,1 0.33,1.82 0.67,2.41c0.4,0.7 1.11,1.14 1.94,0.89c0.91,-0.27 1.28,-1.02 1.19,-1.95c-0.06,-0.7 -0.41,-1.32 -0.56,-2c-0.3,-1.41 -0.26,-3.04 0.29,-4.39c0.1,-0.27 0.42,-0.63 0.26,-0.89" fill="#3968bb" fill-rule="nonzero" id="path188"/>
   </g>
   <g id="g190" transform="matrix(2.10483 0 0 -2.26765 -135.973 99.0238)">
    <path d="m98.03,-96.08c1.9,0.51 2.15,0.77 2.95,3.13c3.12,-4.81 3.82,-16.99 3.53,-16.17c-0.08,0.23 -0.19,0.45 -0.3,0.67c-2.03,4.06 -3.76,8.26 -6.12,12.16c-0.03,0.04 -0.03,0.11 -0.06,0.21" fill="#246e44" fill-rule="evenodd" id="path192"/>
   </g>
   <g id="g194" transform="matrix(2.10483 0 0 -2.26765 -94.8434 151.72)">
    <path d="m156.65,-86.12c0.41,0.04 0.78,0.08 1.15,0.11c0.08,0.01 0.17,-0.02 0.23,-0.06c0.55,-0.41 1.09,-0.82 1.64,-1.24c-0.14,-0.05 -0.31,-0.09 -0.47,-0.15c-0.16,-0.05 -0.32,-0.1 -0.47,-0.17c-0.54,-0.25 -0.67,-0.62 -0.33,-1.08c0.23,-0.33 0.54,-0.61 0.82,-0.9c0.09,-0.1 0.2,-0.18 0.33,-0.29c-0.82,-0.16 -1.56,-0.07 -2.23,0.36c-0.08,0.06 -0.16,0.16 -0.19,0.25c-0.29,0.95 -0.56,1.9 -0.52,2.9c0.01,0.08 0.02,0.15 0.04,0.27" fill="#fabb18" fill-rule="evenodd" id="path196"/>
   </g>
   <g id="g198" transform="matrix(2.10483 0 0 -2.26765 -122.896 164.141)">
    <path d="m116.67,-83.77c-1.61,0.01 -2.98,0.02 -4.34,0.02c-0.41,-0.01 -0.69,0.13 -0.97,0.31c-2.24,1.44 -4.48,2.88 -6.73,4.31c-0.44,0.28 -0.89,0.54 -1.52,0.91c1.06,-0.14 1.91,-0.25 2.75,-0.36c0.09,-0.01 0.18,-0.05 0.27,-0.05c1.51,0.04 2.63,-0.55 3.74,-1.19c2.07,-1.21 4.16,-2.4 6.24,-3.59c0.14,-0.08 0.27,-0.17 0.56,-0.36" fill="#ef3546" fill-rule="evenodd" id="path200"/>
   </g>
   <g id="g202" transform="matrix(2.10483 0 0 -2.26765 -107.634 -318.027)">
    <path d="m138.42,-174.9c2.88,-1.48 5.48,-3.19 8,-5.27c-0.36,-0.05 -0.55,-0.09 -0.74,-0.11c-1.14,-0.08 -2.29,-0.19 -3.43,-0.24c-0.29,-0.01 -0.56,0.11 -0.83,0.19c-0.09,0.03 -0.16,0.1 -0.23,0.16c-1.38,1.22 -2.75,2.43 -4.13,3.65c0.44,0.53 0.87,1.05 1.36,1.62" fill="#85d27c" fill-rule="evenodd" id="path204"/>
   </g>
   <g id="g206" transform="matrix(2.10483 0 0 -2.26765 -111.938 163.499)">
    <path d="m132.29,-83.89c-1.21,0.01 -2.25,0.01 -3.28,0.02c-0.25,0 -0.51,0.04 -0.73,-0.01c-1.2,-0.28 -1.91,0.21 -2.62,0.81c-1.16,0.97 -2.39,1.9 -3.58,2.84c0.21,0 0.58,0 0.96,0c1,-0.02 2.01,-0.02 3.02,-0.07c0.34,-0.01 0.74,-0.08 0.99,-0.24c1.68,-1 3.32,-2.04 4.97,-3.06c0.07,-0.04 0.1,-0.1 0.27,-0.29" fill="#ef3546" fill-rule="evenodd" id="path208"/>
   </g>
   <g id="g210" transform="matrix(2.10483 0 0 -2.26765 -137.779 73.6078)">
    <path d="m95.46,-100.88c1.05,0.88 0.95,2.07 0.94,3.34c1.61,-1.36 2.98,-2.79 4.12,-4.41c0.09,-0.13 0.19,-0.3 0.16,-0.42c-0.19,-0.92 -0.34,-1.85 -0.66,-2.73c-0.25,-0.69 -0.97,-0.82 -1.64,-0.73c-0.23,0.03 -0.5,0.33 -0.63,0.57c-0.77,1.42 -1.51,2.87 -2.29,4.38" fill="#246e44" fill-rule="evenodd" id="path212"/>
   </g>
   <g id="g214" transform="matrix(2.10483 0 0 -2.26765 -131.036 151.729)">
    <path d="m105.07,-86.11c0.11,0.72 0.22,1.44 0.32,2.17c0.92,-0.24 6.14,-3.48 8.47,-5.25c-0.76,-0.03 -1.44,-0.08 -2.12,-0.07c-0.25,0 -0.54,0.09 -0.75,0.19c-1.88,0.92 -3.74,1.84 -5.61,2.77c-0.1,0.04 -0.18,0.11 -0.31,0.19" fill="#ef3546" fill-rule="evenodd" id="path216"/>
   </g>
   <g id="g218" transform="matrix(2.10483 0 0 -2.26765 -126.306 145.137)">
    <path d="m111.81,-87.36c1.23,-0.08 2.38,-0.15 3.52,-0.25c0.31,-0.02 0.67,-0.11 0.9,-0.25c2.09,-1.36 4.16,-2.74 6.24,-4.12c0.03,-0.02 0.04,-0.07 0.08,-0.19c-0.86,0.01 -1.69,0 -2.53,0.03c-0.21,0.01 -0.45,0.12 -0.63,0.23c-2.49,1.46 -4.97,2.93 -7.45,4.4c-0.05,0.03 -0.07,0.07 -0.13,0.15" fill="#ef3546" fill-rule="evenodd" id="path220"/>
   </g>
   <g id="g222" transform="matrix(2.10483 0 0 -2.26765 -119.657 79.9207)">
    <path d="m121.29,-99.69c0,-0.26 0,-0.39 -0.01,-0.53c-0.08,-1.46 -0.16,-2.91 -0.23,-4.37c-0.04,-0.73 -0.89,-1.75 -1.61,-1.93c-0.72,-0.17 -1.43,0.31 -1.41,1.07c0.03,1.12 0.25,2.23 1.01,3.16c0.62,0.75 1.25,1.48 1.88,2.22c0.09,0.1 0.19,0.2 0.37,0.38" fill="#fabb18" fill-rule="evenodd" id="path224"/>
   </g>
   <g id="g226" transform="matrix(2.10483 0 0 -2.26765 -108.951 162.111)">
    <path d="m136.54,-84.15c-1.3,-0.07 -2.6,-0.15 -3.9,-0.2c-0.22,-0.01 -0.49,0.06 -0.65,0.17c-1.55,1.01 -3.07,2.03 -4.6,3.06c-0.02,0.01 0,0.04 0,0.11c0.25,0.02 0.51,0.04 0.76,0.04c0.92,-0.01 1.83,-0.02 2.74,-0.05c0.32,-0.02 0.7,-0.06 0.93,-0.19c1.61,-0.92 3.18,-1.87 4.76,-2.8c-0.01,-0.05 -0.02,-0.1 -0.04,-0.14" fill="#ef3546" fill-rule="evenodd" id="path228"/>
   </g>
   <g id="g230" transform="matrix(2.10483 0 0 -2.26765 -118.048 164.053)">
    <path d="m123.58,-83.79c-0.09,-0.02 -0.11,-0.03 -0.14,-0.03c-0.88,0 -1.85,-0.16 -2.62,0.05c-0.74,0.19 -1.3,0.77 -1.93,1.18c-1.52,1.02 -3.04,2.04 -4.69,3.14c1.19,-0.05 2.25,-0.08 3.31,-0.17c0.27,-0.02 0.53,-0.21 0.75,-0.36c1.74,-1.21 3.48,-2.43 5.22,-3.64c0.04,-0.03 0.05,-0.08 0.1,-0.17" fill="#ef3546" fill-rule="evenodd" id="path232"/>
   </g>
   <g id="g234" transform="matrix(2.10483 0 0 -2.26765 -93.5938 160.414)">
    <path d="m158.43,-84.47c0.52,0.26 1.05,0.37 1.57,0.5c0.09,0.02 0.2,-0.01 0.28,-0.04c0.32,-0.17 0.65,-0.33 0.95,-0.52c0.3,-0.18 0.33,-0.45 0.04,-0.64c-0.4,-0.25 -0.84,-0.46 -1.26,-0.67c-0.07,-0.03 -0.21,-0.01 -0.27,0.03c-0.5,0.37 -0.98,0.76 -1.31,1.34" fill="#fabb18" fill-rule="evenodd" id="path236"/>
   </g>
   <g id="g238" transform="matrix(2.10483 0 0 -2.26765 -115.6 163.765)">
    <path d="m127.07,-83.84c-1,-0.01 -1.92,-0.17 -2.67,0.03c-0.71,0.18 -1.22,0.75 -1.82,1.15c-1.22,0.81 -2.44,1.61 -3.66,2.42c-0.15,0.1 -0.31,0.21 -0.52,0.35c1.04,-0.05 2,-0.07 2.95,-0.14c0.33,-0.03 0.72,-0.14 0.96,-0.3c1.51,-1.07 2.99,-2.16 4.48,-3.24c0.08,-0.06 0.14,-0.14 0.28,-0.27" fill="#ef3546" fill-rule="evenodd" id="path240"/>
   </g>
   <g id="g242" transform="matrix(2.10483 0 0 -2.26765 -140.431 -95.9416)">
    <path d="m91.68,-132.92c0.79,0.85 1.73,1.57 2.8,2.51c0.38,-0.95 0.7,-1.66 0.95,-2.39c0.61,-1.84 1.05,-3.74 1.82,-5.51c0.67,-1.53 0.16,-2.59 -0.81,-3.81c-0.39,1.17 -0.74,2.23 -1.11,3.28c-0.18,0.54 -0.35,1.08 -0.57,1.6c-0.93,2.19 -2.01,2.46 -3.85,0.92c-0.76,-0.63 -1.46,-1.33 -2.33,-2.13c0.06,0.39 0.05,0.68 0.14,0.94c0.46,1.48 2.42,4 2.96,4.59" fill="#246e44" fill-rule="evenodd" id="path244"/>
   </g>
   <g id="g246" transform="matrix(2.10483 0 0 -2.26765 -142.489 -51.9312)">
    <path d="m88.74,-124.6c-0.09,1.59 -0.05,2.95 1.29,4.03c1.2,0.96 2.25,2.12 3.51,3.34c0.32,-0.69 0.57,-1.13 0.73,-1.61c0.58,-1.69 1.15,-3.4 1.67,-5.12c0.1,-0.35 0.05,-0.87 -0.14,-1.16c-0.45,-0.65 -1.04,-1.19 -1.68,-1.9c-0.34,1.01 -0.58,1.86 -0.92,2.65c-0.78,1.77 -1.84,2.01 -3.31,0.78c-0.36,-0.3 -0.7,-0.62 -1.15,-1.01" fill="#246e44" fill-rule="evenodd" id="path248"/>
   </g>
   <g id="g250" transform="matrix(2.10483 0 0 -2.26765 -138.087 69.8957)">
    <path d="m95.02,-101.58c-1.5,2.17 -2.9,4.19 -4.32,6.23c0.4,0.36 0.79,0.18 1.11,-0.04c1.05,-0.74 2.08,-1.51 3.12,-2.28c0.11,-0.09 0.26,-0.22 0.28,-0.35c0.19,-1.12 0.47,-2.26 -0.19,-3.56" fill="#246e44" fill-rule="evenodd" id="path252"/>
   </g>
   <g id="g254" transform="matrix(2.10483 0 0 -2.26765 -101.762 -286.863)">
    <path d="m146.79,-169.01c-1.16,0.06 -2.18,0.15 -3.22,0.16c-0.61,0.01 -1.24,-0.11 -1.86,-0.14c-0.19,-0.01 -0.41,0.01 -0.55,0.1c-0.36,0.26 -0.69,0.56 -1.12,0.92c0.28,0.06 0.44,0.11 0.6,0.13c1.22,0.1 2.44,0.18 3.66,0.32c0.51,0.06 0.87,-0.08 1.2,-0.39c0.37,-0.37 0.8,-0.69 1.29,-1.1" fill="#85d27c" fill-rule="evenodd" id="path256"/>
   </g>
   <g id="g258" transform="matrix(2.10483 0 0 -2.26765 -131.121 154.527)">
    <path d="m104.95,-85.59c1.77,-0.84 3.37,-1.6 4.97,-2.36c-0.02,-0.04 -0.03,-0.08 -0.05,-0.12c-1.46,0.01 -2.93,0 -4.4,0.03c-0.55,0.01 -0.79,0.22 -0.77,0.6c0.04,0.57 0.15,1.14 0.25,1.85" fill="#ef3546" fill-rule="evenodd" id="path260"/>
   </g>
   <g id="g262" transform="matrix(2.10483 0 0 -2.26765 -101.467 -282.265)">
    <path d="m147.21,-168.14c-0.02,-0.41 -0.04,-0.79 -0.07,-1.26c-0.46,0.01 -0.86,0.01 -1.25,0.02c-0.36,0 -0.72,0.05 -1.08,-0.02c-0.93,-0.2 -1.57,0.11 -2.04,0.77c-0.12,0.16 -0.26,0.3 -0.41,0.47c1.14,0.24 3.14,0.25 4.85,0.02" fill="#85d27c" fill-rule="evenodd" id="path264"/>
   </g>
   <g id="g266" transform="matrix(2.10483 0 0 -2.26765 -141.127 -53.5488)">
    <path d="m90.68,-124.91c0.74,-1.35 1.13,-2.59 1.26,-3.98c-0.6,-0.57 -1.17,-1.21 -1.82,-1.74c-0.91,-0.75 -1.69,-0.55 -2.07,0.55c-0.39,1.12 -0.44,2.24 0.52,3.15c0.67,0.64 1.35,1.29 2.11,2.02" fill="#246e44" fill-rule="evenodd" id="path268"/>
   </g>
   <g id="g270" transform="matrix(2.10483 0 0 -2.26765 -101.555 -263.518)">
    <path d="m147.09,-164.59c-0.78,0.81 -1.44,1.48 -2.17,2.22c0.77,0.01 1.48,0.01 2.23,0.02c-0.02,-0.7 -0.04,-1.38 -0.06,-2.24" fill="#85d27c" fill-rule="evenodd" id="path272"/>
   </g>
   <g id="g274" transform="matrix(2.10483 0 0 -2.26765 -117.699 125.699)">
    <path d="m124.08,-91.03c-0.36,0.01 -0.65,0.38 -0.66,0.83c-0.01,0.43 0.23,0.76 0.57,0.78c0.37,0.01 0.71,-0.4 0.7,-0.87c0,-0.42 -0.28,-0.75 -0.61,-0.74m-2.36,-0.37c-0.33,0 -0.6,0.34 -0.62,0.78c-0.02,0.45 0.21,0.76 0.57,0.76c0.36,0.01 0.59,-0.29 0.62,-0.76c0.02,-0.44 -0.23,-0.79 -0.57,-0.78m-3.31,0.53c-0.36,-0.02 -0.68,0.36 -0.68,0.8c0,0.38 0.26,0.72 0.56,0.72c0.32,0 0.64,-0.37 0.65,-0.77c0.01,-0.39 -0.23,-0.73 -0.53,-0.75m10.51,-2.9c-0.07,0.3 -0.15,0.61 -0.27,0.88c-0.9,2.03 -2.09,3.55 -3.66,4.38c-1.03,0.54 -2.09,0.77 -3.16,0.94c-1.06,0.17 -2.11,0.03 -3.08,-0.43c-0.78,-0.37 -1.5,-0.94 -2.21,-1.51c-1,-0.79 -1.53,-2.19 -1.96,-3.67c-0.16,-0.53 0.06,-1.04 0.46,-1.17c0.18,-0.06 0.37,-0.08 0.55,-0.1c0.7,-0.04 1.4,-0.08 2.1,-0.12c0.42,-0.02 0.83,-0.05 1.25,-0.07c0.72,-0.02 1.43,-0.02 2.15,-0.04c1.11,-0.03 2.23,-0.09 3.35,-0.1c1.33,-0.01 2.66,0.02 3.99,0.04c0.57,-0.06 0.69,0.18 0.49,0.97" fill="#f36521" fill-rule="nonzero" id="path276"/>
   </g>
   <g id="g278" transform="matrix(2.10483 0 0 -2.26765 -98.4415 -178.17)">
    <path d="m151.52,-148.46c0.84,-1.47 1.81,-12.89 1.31,-15.74c-0.85,1.27 -1.68,2.52 -2.5,3.77c-0.1,0.15 -0.19,0.32 -0.24,0.49c-0.64,2.33 -1.26,4.66 -1.88,6.97c1.1,1.5 2.22,3.02 3.31,4.51" fill="#fabb18" fill-rule="nonzero" id="path280"/>
   </g>
   <g id="g282" transform="matrix(2.10483 0 0 -2.26765 -101.064 -139.919)">
    <path d="m147.79,-141.23c2.61,-1.32 6.32,-7.04 6.03,-9.33c-0.48,-0.35 -0.82,-0.21 -1.26,0.17c-1.16,1 -2.38,1.93 -3.6,2.86c-0.35,0.26 -0.5,0.53 -0.55,0.97c-0.18,1.79 -0.41,3.57 -0.62,5.33" fill="#246e44" fill-rule="nonzero" id="path284"/>
   </g>
   <g id="g286" transform="matrix(2.10483 0 0 -2.26765 -98.6341 -187.839)">
    <path d="m151.25,-150.29c0.12,-0.6 0.03,-1.09 -0.3,-1.64c-0.85,-1.4 -1.96,-2.57 -3.07,-3.91c-0.38,1.21 -0.71,2.29 -1.06,3.36c-0.35,1.08 -0.72,2.16 -1.1,3.22c-0.14,0.38 -0.12,0.67 0.08,1.04c1.1,2.04 1.79,4.23 2.19,6.5c0.06,0.3 0.11,0.6 0.31,0.92c0.15,-0.34 0.32,-0.68 0.46,-1.03c1.04,-2.76 1.92,-5.56 2.49,-8.46" fill="#fabb18" fill-rule="nonzero" id="path288"/>
   </g>
   <g id="g290" transform="matrix(2.10483 0 0 -2.26765 -98.7239 -100.786)">
    <path d="m151.12,-133.84c-1.11,-0.45 -2.01,-0.84 -2.93,-1.18c-0.27,-0.1 -0.64,-0.14 -0.89,-0.04c-1.83,0.71 -3.64,1.46 -5.45,2.21c-0.08,0.03 -0.12,0.13 -0.26,0.29c1.43,0.51 2.86,0.92 4.19,1.51c0.98,0.44 1.65,0.2 2.39,-0.44c0.89,-0.78 1.86,-1.49 2.95,-2.35" fill="#246e44" fill-rule="nonzero" id="path292"/>
   </g>
   <g id="g294" transform="matrix(2.10483 0 0 -2.26765 -99.8827 -138.276)">
    <path d="m149.47,-140.92c-0.06,-0.02 -0.11,-0.04 -0.17,-0.06c-0.57,0.46 -1.1,0.99 -1.72,1.38c-1.06,0.67 -2.18,1.24 -3.26,1.87c-0.31,0.18 -0.68,0.36 -0.87,0.63c-1.1,1.63 -2.15,3.29 -3.21,4.93c0.04,0.05 0.09,0.1 0.13,0.15c0.21,-0.08 0.42,-0.15 0.63,-0.24c2.14,-0.99 4.29,-1.99 6.42,-3c0.22,-0.11 0.46,-0.34 0.53,-0.56c0.53,-1.69 1.02,-3.4 1.52,-5.1" fill="#fabb18" fill-rule="nonzero" id="path296"/>
   </g>
   <g id="g298" transform="matrix(2.10483 0 0 -2.26765 -100.714 -232.536)">
    <path d="m148.28,-158.74c0.18,-0.28 0.28,-0.7 0.23,-1.02c-0.39,-2.37 -1.16,-4.63 -2.17,-6.81c-0.05,-0.11 -0.12,-0.21 -0.27,-0.46c-0.55,1.48 -1.04,2.84 -1.55,4.18c-0.47,1.23 -0.96,2.45 -1.47,3.67c-0.21,0.5 -0.25,0.94 -0.1,1.49c0.42,1.53 0.74,3.09 1.1,4.64c0.03,0.12 0.08,0.23 0.16,0.43c0.2,-0.22 0.37,-0.37 0.49,-0.55c1.2,-1.85 2.41,-3.7 3.58,-5.57" fill="#fabb18" fill-rule="nonzero" id="path300"/>
   </g>
   <g id="g302" transform="matrix(2.10483 0 0 -2.26765 -101.106 -169.337)">
    <path d="m147.73,-146.79c0.06,-0.17 0.08,-0.35 0.15,-0.64c-0.21,0.06 -0.35,0.08 -0.47,0.14c-2.28,1.05 -4.56,2.13 -6.85,3.17c-0.47,0.22 -0.8,0.51 -1,1c-0.92,2.21 -1.85,4.41 -2.79,6.62c-0.04,0.11 -0.06,0.22 -0.15,0.52c2.7,-1.06 5.23,-2.09 7.68,-3.28c0.86,-0.42 1.28,-0.97 1.55,-1.85c0.57,-1.91 1.25,-3.79 1.88,-5.68" fill="#fabb18" fill-rule="nonzero" id="path304"/>
   </g>
   <g id="g306" transform="matrix(2.10483 0 0 -2.26765 -101.195 -120.05)">
    <path d="m147.6,-137.48c-0.07,-0.03 -0.15,-0.06 -0.22,-0.1c-0.88,0.61 -1.77,1.21 -2.64,1.84c-0.19,0.13 -0.37,0.35 -0.43,0.57c-0.57,1.87 -1.1,3.76 -1.67,5.73c1.48,-0.51 2.83,-1.25 4.03,-2.03c0.32,-2.09 0.63,-4.05 0.93,-6.01" fill="#246e44" fill-rule="nonzero" id="path308"/>
   </g>
   <g id="g310" transform="matrix(2.10483 0 0 -2.26765 -102.768 -123.281)">
    <path d="m145.36,-138.09c0.7,-0.48 1.5,-1.02 2.39,-1.62c-1.8,-0.67 -3.47,-1.29 -5.15,-1.92c-0.32,-0.12 -0.59,-0.07 -0.85,0.15c-0.67,0.57 -1.35,1.14 -2.02,1.72c0,0.09 0.01,0.17 0.01,0.26c1.83,0.46 3.66,0.92 5.62,1.41" fill="#246e44" fill-rule="nonzero" id="path312"/>
   </g>
   <g id="g314" transform="matrix(2.10483 0 0 -2.26765 -102.806 -206.398)">
    <path d="m145.3,-153.8c0.04,-0.1 0,-0.23 0,-0.37c-0.12,0.03 -0.22,0.02 -0.29,0.06c-2.32,1.27 -4.81,2.14 -7.28,3.08c-0.62,0.23 -0.89,0.59 -1.05,1.21c-0.52,2.07 -0.63,4.18 -0.72,6.29c-0.01,0.11 0.03,0.23 0.04,0.33c0.1,0 0.18,0.03 0.22,0c2,-1.13 4.01,-2.25 6,-3.4c0.24,-0.15 0.48,-0.41 0.58,-0.67c0.85,-2.17 1.68,-4.35 2.5,-6.53" fill="#fabb18" fill-rule="nonzero" id="path316"/>
   </g>
   <g id="g318" transform="matrix(2.10483 0 0 -2.26765 -103.546 -264.47)">
    <path d="m144.25,-164.77c0.29,-0.37 0.43,-0.71 0.29,-1.18c-0.41,-1.37 -0.8,-2.75 -1.21,-4.18c-1.87,4.08 -3.68,8.06 -5.5,12.04c0.04,-0.01 0.2,-0.01 0.29,-0.09c2.16,-2.09 4.26,-4.23 6.13,-6.59" fill="#fabb18" fill-rule="nonzero" id="path320"/>
   </g>
   <g id="g322" transform="matrix(2.10483 0 0 -2.26765 -103.496 -126.883)">
    <path d="m144.32,-138.77c-0.01,-0.07 -0.02,-0.15 -0.03,-0.22c-1.65,-0.42 -3.3,-0.85 -4.95,-1.26c-0.15,-0.04 -0.37,0.03 -0.51,0.11c-0.52,0.32 -2.03,2.23 -2.32,2.91c0.04,0.04 0.07,0.11 0.12,0.12c1.37,0.09 2.75,0.19 4.12,0.27c0.15,0.01 0.33,0 0.45,-0.07c1.05,-0.61 2.08,-1.24 3.12,-1.86" fill="#246e44" fill-rule="nonzero" id="path324"/>
   </g>
   <g id="g326" transform="matrix(2.10483 0 0 -2.26765 -103.568 -132.951)">
    <path d="m144.22,-139.92c0.03,-0.08 -0.02,-0.18 -0.05,-0.38c-0.77,0.48 -1.49,0.91 -2.19,1.38c-0.16,0.11 -0.25,0.35 -0.33,0.54c-0.67,1.51 -1.32,3.03 -2.02,4.62c0.97,-0.15 1.85,-0.52 2.74,-0.85c0.14,-0.05 0.29,-0.24 0.34,-0.4c0.52,-1.63 1.01,-3.27 1.51,-4.91" fill="#246e44" fill-rule="nonzero" id="path328"/>
   </g>
   <g id="g330" transform="matrix(2.10483 0 0 -2.26765 -104.607 -242.073)">
    <path d="m142.74,-160.54c-0.66,0.35 -1.16,0.62 -1.66,0.89c-1.24,0.67 -2.48,1.34 -3.72,2c-0.31,0.17 -0.58,0.32 -0.56,0.74c0.09,2.52 0.16,5.03 0.25,7.54c0.01,0.21 0.1,0.42 0.2,0.82c1.97,-3.98 3.91,-7.8 5.49,-11.99" fill="#fabb18" fill-rule="nonzero" id="path332"/>
   </g>
   <g id="g334" transform="matrix(2.10483 0 0 -2.26765 -105.622 -142.378)">
    <path d="m141.29,-141.7c0.03,-0.07 0,-0.17 0,-0.39c-2.31,1.24 -4.43,2.61 -6.57,3.96c0.08,0.48 0.39,0.63 0.77,0.72c1.19,0.31 2.38,0.12 3.55,-0.07c0.21,-0.04 0.44,-0.26 0.53,-0.45c0.6,-1.25 1.16,-2.51 1.72,-3.77" fill="#246e44" fill-rule="nonzero" id="path336"/>
   </g>
   <g id="g338" transform="matrix(2.10483 0 0 -2.26765 -106.126 -138.224)">
    <path d="m140.57,-140.91c-1.12,-0.29 -2.19,-0.46 -3.28,-0.4c-0.16,0 -0.35,0.22 -0.45,0.39c-0.45,0.79 -0.86,1.6 -1.3,2.42c0.78,-0.03 3.27,-1.22 5.03,-2.41" fill="#246e44" fill-rule="nonzero" id="path340"/>
   </g>
   <g id="g342" transform="matrix(2.10483 0 0 -2.26765 -96.6383 128.692)">
    <path d="m154.09,-90.47c0.07,-0.31 0.12,-0.57 0.18,-0.84c-0.34,-0.1 -0.65,-0.18 -0.95,-0.29c-0.25,-0.1 -0.5,-0.22 -0.72,-0.36c-0.49,-0.32 -0.64,-0.74 -0.46,-1.17c0.17,-0.38 0.46,-0.68 0.85,-0.93c0.52,-0.32 1.1,-0.57 1.74,-0.75c0.21,-0.06 0.31,-0.16 0.36,-0.34c0.32,-1.19 0.67,-2.37 1,-3.56c0.05,-0.18 0.07,-0.37 0.05,-0.56c-0.02,-0.13 -0.14,-0.25 -0.25,-0.46c-0.17,0.15 -0.28,0.23 -0.37,0.32c-1.59,1.57 -3,3.23 -4.27,4.98c-1.9,2.61 -3.63,5.29 -5.18,8.06c-0.56,1.01 -1.06,2.04 -1.39,3.12c-0.22,0.74 -0.33,1.51 -0.49,2.27c-0.01,0.05 -0.01,0.09 -0.01,0.14c-0.01,0.64 0.19,0.79 1.01,0.88c1.06,0.11 2.01,-0.06 2.92,-0.36c0.29,-0.09 0.57,-0.21 0.83,-0.3c-0.47,-0.58 -0.95,-1.12 -1.34,-1.68c-0.32,-0.47 -0.55,-0.97 -0.77,-1.46c-0.1,-0.24 -0.11,-0.5 -0.09,-0.75c0.02,-0.55 0.4,-0.89 1.04,-1.06c0.7,-0.19 1.45,-0.16 2.19,-0.04c0.92,0.14 1.79,0.44 2.63,0.79c0.12,0.05 0.25,0.1 0.42,0.18c0.3,-0.71 0.48,-1.43 0.6,-2.21c-0.17,0 -0.31,0 -0.46,-0.01c-0.63,-0.04 -1.27,-0.05 -1.9,-0.13c-0.39,-0.06 -0.78,-0.2 -1.13,-0.36c-0.8,-0.38 -0.96,-0.96 -0.48,-1.5c0.37,-0.43 0.92,-0.71 1.5,-0.95c0.72,-0.28 1.49,-0.46 2.3,-0.57c0.22,-0.03 0.43,-0.07 0.64,-0.1" fill="#246e44" fill-rule="evenodd" id="path344"/>
   </g>
   <g id="g346" transform="matrix(2.10483 0 0 -2.26765 -99.1791 101.488)">
    <path d="m150.47,-95.61c0.05,-0.3 0.35,-0.48 0.67,-0.41c0.29,0.07 0.53,0.37 0.49,0.61c-0.05,0.25 -0.36,0.41 -0.69,0.35c-0.32,-0.06 -0.52,-0.29 -0.47,-0.55m0.29,2.67c1.71,-0.82 2.8,-1.83 3.23,-3.21c-0.35,-0.24 -0.78,-0.35 -1.19,-0.49c-0.9,-0.32 -1.82,-0.54 -2.77,-0.48c-0.27,0.02 -0.54,0.05 -0.79,0.12c-0.41,0.11 -0.62,0.35 -0.56,0.72c0.03,0.2 0.06,0.41 0.14,0.6c0.42,0.99 1.13,1.88 1.94,2.75" fill="#85d27c" fill-rule="evenodd" id="path348"/>
   </g>
   <g id="g350" transform="matrix(2.10483 0 0 -2.26765 -133.356 70.5271)">
    <path d="m101.76,-101.46c-0.24,-0.88 -0.47,-1.71 -0.71,-2.62c1.93,-3.63 3.44,-7.97 4.73,-12.64c0.43,0.07 0.85,0.13 1.33,0.21c-0.64,2.8 -1.45,5.4 -2.33,7.93c-0.89,2.54 -1.89,4.9 -3.02,7.12" fill="#f36521" fill-rule="evenodd" id="path352"/>
   </g>
   <g id="g354" transform="matrix(2.10483 0 0 -2.26765 -134.675 68.1326)">
    <path d="m99.88,-101.91c0.27,0.82 0.54,1.63 0.82,2.49c-1.03,1.45 -2.01,3.09 -3.13,4.02c-0.27,0.22 -0.56,0.33 -0.82,0.35c-0.31,0.03 -0.49,-0.35 -0.53,-0.97c-0.03,-0.61 0.13,-1.14 0.38,-1.59c0.1,-0.18 0.22,-0.33 0.34,-0.48c0.93,-1.21 1.85,-2.42 2.78,-3.64c0.05,-0.06 0.1,-0.11 0.16,-0.18" fill="#ef3546" fill-rule="evenodd" id="path356"/>
   </g>
   <g id="g358" transform="matrix(2.10483 0 0 -2.26765 -97.3875 120.223)">
    <path d="m153.03,-92.07c-0.04,0.23 -0.35,0.39 -0.62,0.33c-0.24,-0.06 -0.39,-0.23 -0.36,-0.42c0.04,-0.22 0.35,-0.36 0.65,-0.3c0.22,0.05 0.36,0.21 0.33,0.39m1.42,-1.59c-0.53,0.11 -0.97,0.18 -1.4,0.29c-0.7,0.17 -1.37,0.41 -1.92,0.78c-0.18,0.12 -0.35,0.26 -0.49,0.42c-0.2,0.21 -0.15,0.37 0.15,0.54c0.17,0.1 0.35,0.18 0.54,0.23c0.9,0.25 1.8,0.28 2.75,0.28c0.12,-0.83 0.24,-1.63 0.37,-2.54" fill="#85d27c" fill-rule="evenodd" id="path360"/>
   </g>
   <g id="g362" transform="matrix(2.10483 0 0 -2.26765 -96.5011 134.477)">
    <path d="m154.29,-89.37c0.15,-0.74 0.3,-1.46 0.45,-2.18c-0.66,0.09 -1.63,0.7 -1.85,1.16c-0.14,0.27 -0.09,0.43 0.25,0.62c0.33,0.19 0.69,0.35 1.15,0.4" fill="#85d27c" fill-rule="evenodd" id="path364"/>
   </g>
   <g id="g366" transform="matrix(2.10483 0 0 -2.26765 -133.945 77.5531)">
    <path d="m100.92,-100.13c0.23,0.89 0.45,1.72 0.68,2.64c-0.21,0.39 -0.44,0.83 -0.72,1.36c-0.27,-0.88 -0.52,-1.69 -0.78,-2.54c0.29,-0.51 0.54,-0.97 0.82,-1.46" fill="#f36521" fill-rule="evenodd" id="path368"/>
   </g>
   <g id="g370" transform="matrix(2.10483 0 0 -2.26765 -100.584 -274.39)">
    <path d="m148.47,-166.65c0.02,0.96 0.34,1.93 0.65,2.85c0.98,2.89 2.5,5.51 4.14,8.28c0.35,-0.62 0.13,-1.09 0.09,-1.53c-0.41,-3.77 -0.93,-7.54 -1.25,-11.33c-0.17,-1.86 -0.86,-3.45 -1.82,-4.99c-0.16,-0.24 -0.39,-0.42 -0.58,-0.64c-0.11,0.02 -0.22,0.03 -0.32,0.05c-0.21,0.95 -0.5,1.89 -0.62,2.84c-0.17,1.48 -0.33,2.98 -0.29,4.47" fill="#ef3546" fill-rule="nonzero" id="path372"/>
   </g>
   <g id="g374" transform="matrix(2.10483 0 0 -2.26765 -95.4335 -345.187)">
    <path d="m155.81,-180.03c0.65,1.24 1.38,2.46 2.2,3.59c1.74,2.42 2.76,5.2 4.09,7.82c0.57,1.14 1.19,2.25 2.01,3.28c-0.33,-0.87 -0.67,-1.74 -1.01,-2.62c-1.01,-2.57 -2.02,-5.15 -3.03,-7.72c-0.35,-0.87 -0.64,-1.77 -1.05,-2.61c-1.36,-2.8 -2.71,-5.61 -4.18,-8.36c-0.59,-1.09 -1.48,-2.04 -2.22,-3.05c-0.12,0.05 -0.23,0.11 -0.34,0.16c0.08,1.68 0.72,3.22 1.31,4.75c0.64,1.63 1.41,3.21 2.22,4.76" fill="#fabb18" fill-rule="nonzero" id="path376"/>
   </g>
   <g id="g378" transform="matrix(2.10483 0 0 -2.26765 -96.2371 -363.446)">
    <path d="m154.67,-183.48c0.27,0.27 0.58,0.49 1.12,0.92c-0.95,-2.53 -1.65,-4.88 -2.71,-7.05c-0.78,-1.58 -2.01,-2.94 -3.1,-4.36c-1.06,-1.39 -2.14,-2.77 -3.32,-4.06c-0.56,-0.6 -1.3,-1.1 -2.05,-1.46c-1.15,-0.55 -1.98,0.13 -1.78,1.39c0.07,0.41 0.26,0.83 0.48,1.18c2.08,3.23 4.43,6.26 7.08,9.05c1.41,1.48 2.84,2.93 4.28,4.39" fill="#3968bb" fill-rule="nonzero" id="path380"/>
   </g>
   <g id="g382" transform="matrix(2.10483 0 0 -2.26765 -117.521 -291.491)">
    <path d="m124.33,-169.88c2.27,-0.27 5.34,1.5 6.51,2.59c0.25,0.24 0.42,1.19 0.34,1.3c-2.8,-0.12 -4.71,-2.11 -6.85,-3.89m0.74,-3.61c1.5,0.41 2.71,0.64 4.15,1.21c1.14,0.45 2.57,1.09 3.62,1.77c0.68,0.44 1.35,1.17 1.54,2.11c0.28,1.33 -0.76,1.97 -1.74,2.15c-0.09,-1.79 -0.69,-2.26 -1.68,-3c-2.25,-1.69 -4.82,-2.37 -7.61,-2.32c-0.36,0 -0.8,-0.04 -1.05,-0.28c-0.82,-0.82 -1.57,-1.75 -2.36,-2.63c0.05,-0.08 0.09,-0.15 0.13,-0.22c0.33,0.07 0.66,0.13 0.99,0.21c1.34,0.33 2.68,0.64 4.01,1m8.58,-0.77c-2.26,-1.32 -4.69,-2.15 -7.27,-2.62c-2.41,-0.44 -4.77,-1.05 -7.16,-1.59c-0.71,-0.16 -1.42,-0.3 -2.14,-0.43c-0.8,-0.14 -2.8,0.06 -1.89,1.23c0.84,1.29 1.76,2.44 2.81,3.47c1.19,1.17 2.38,2.35 3.52,3.59c1.96,2.13 4.03,4.11 6.45,5.47c2.21,1.24 4.58,1.38 7.08,-0.25c1.93,-1.26 2.58,-4.36 1.45,-6.17c-0.75,-1.19 -1.73,-2.05 -2.85,-2.7" fill="#fabb18" fill-rule="nonzero" id="path384"/>
   </g>
   <g id="g386" transform="matrix(2.10483 0 0 -2.26765 -114.95 -281.966)">
    <path d="m127.99,-168.08c-1.44,-0.57 -2.65,-0.8 -4.14,-1.21c-1.33,-0.36 -2.68,-0.67 -4.02,-1c-0.32,-0.08 -0.66,-0.14 -0.99,-0.21c-0.04,0.07 -0.08,0.14 -0.12,0.22c0.78,0.88 1.53,1.8 2.36,2.63c0.24,0.24 0.68,0.28 1.05,0.28c2.78,-0.05 5.36,0.63 7.6,2.32c1,0.74 1.59,1.21 1.68,3c0.98,-0.18 2.03,-0.81 1.75,-2.15c-0.2,-0.94 -0.87,-1.67 -1.55,-2.11c-1.04,-0.68 -2.48,-1.32 -3.62,-1.77" fill="#3968bb" fill-rule="nonzero" id="path388"/>
   </g>
   <g id="g390" transform="matrix(2.10483 0 0 -2.26765 -114.098 -301.755)">
    <path d="m129.21,-171.82c-1.17,-1.09 -4.23,-2.86 -6.51,-2.59c2.14,1.79 4.06,3.77 6.85,3.9c0.09,-0.12 -0.09,-1.07 -0.34,-1.31" fill="#b10f6d" fill-rule="nonzero" id="path392"/>
   </g>
   <g id="g394" transform="matrix(2.10483 0 0 -2.26765 -105.133 -344.584)">
    <path d="m141.99,-179.91c0.23,-0.12 0.5,-0.03 0.62,0.23c0.11,0.24 0.05,0.44 -0.17,0.58c-0.21,0.15 -0.51,0.06 -0.63,-0.17c-0.13,-0.23 -0.05,-0.52 0.18,-0.64m-0.27,-1.9c0.27,0.41 0.21,0.91 -0.14,1.16c-0.38,0.27 -0.89,0.13 -1.22,-0.32c-0.28,-0.4 -0.22,-0.88 0.15,-1.13c0.4,-0.28 0.92,-0.15 1.21,0.29m2.5,0.33c-0.07,-0.15 -0.17,-0.29 -0.25,-0.43c-0.45,-0.81 -1.09,-1.44 -1.87,-1.92c-0.76,-0.46 -1.54,-0.87 -2.31,-1.3c-0.16,-0.08 -0.34,-0.16 -0.51,-0.21c-0.58,-0.15 -1.01,0.09 -0.99,0.67c0.05,1.57 -0.09,3.16 0.46,4.69c0.61,1.72 2.25,2.67 3.83,2.73c0.85,0.03 1.73,-0.67 1.97,-1.5c0.29,-0.96 0.1,-1.86 -0.33,-2.74" fill="#246e44" fill-rule="nonzero" id="path396"/>
   </g>
   <g id="g398" transform="matrix(2.10483 0 0 -2.26765 -105.347 -341.629)">
    <path d="m141.68,-179.36c0.35,-0.25 0.41,-0.75 0.14,-1.15c-0.3,-0.45 -0.82,-0.58 -1.22,-0.3c-0.36,0.25 -0.43,0.73 -0.14,1.13c0.32,0.45 0.84,0.59 1.22,0.32" fill="#fabb18" fill-rule="nonzero" id="path400"/>
   </g>
   <g id="g402" transform="matrix(2.10483 0 0 -2.26765 -104.808 -345.476)">
    <path d="m142.45,-180.08c-0.12,-0.25 -0.39,-0.35 -0.62,-0.23c-0.22,0.13 -0.31,0.42 -0.18,0.64c0.12,0.23 0.42,0.32 0.63,0.18c0.22,-0.15 0.29,-0.35 0.17,-0.59" fill="#ffffff" fill-rule="nonzero" id="path404"/>
   </g>
   <g id="g406" transform="matrix(2.10483 0 0 -2.26765 -133.512 -108.654)">
    <path d="m101.54,-135.32c0.12,-0.16 0.24,-0.24 0.22,-0.3c-0.53,-2.04 -0.55,-2.08 -3.92,-1.19c-4.19,1.09 -7.9,2.83 -11.27,4.92c-0.74,0.46 -1.36,1.04 -1.85,1.6c-0.36,0.42 -0.42,0.9 -0.62,1.35c0.17,0.02 0.33,0.04 0.5,0.06c4.75,-3.58 10.06,-6.3 16.94,-6.44" fill="#85d27c" fill-rule="nonzero" id="path408"/>
   </g>
   <g id="g410" transform="matrix(2.10483 0 0 -2.26765 -132.383 -148.458)">
    <path d="m103.15,-142.85c0.24,-0.92 0.44,-1.7 0.64,-2.45c-5.14,0.11 -14.29,2.79 -18.02,5.29c0.45,0.27 0.95,0.56 1.59,0.95c4.91,-2.78 9.98,-4.54 15.79,-3.79" fill="#fabb18" fill-rule="nonzero" id="path412"/>
   </g>
   <g id="g414" transform="matrix(2.10483 0 0 -2.26765 -132.574 -164.904)">
    <path d="m102.87,-145.96c0.33,-0.81 -0.03,-1.3 -0.96,-1.66c-2.19,-0.83 -4.62,-0.71 -7.14,0.45c-1.48,0.69 -2.76,1.62 -4.55,2.7c3.12,2.38 5.96,4.55 9.04,6.9c0.39,-0.65 0.64,-0.97 0.77,-1.3c0.96,-2.36 1.87,-4.73 2.84,-7.09" fill="#ef3546" fill-rule="nonzero" id="path416"/>
   </g>
   <g id="g418" transform="matrix(2.10483 0 0 -2.26765 -133.373 -124.639)">
    <path d="m101.74,-138.35c-0.16,-0.4 -0.65,-0.6 -1.11,-0.47c-0.5,0.14 -0.75,0.61 -0.58,1.07c0.16,0.41 0.63,0.62 1.09,0.48c0.49,-0.15 0.77,-0.65 0.6,-1.08m-4.1,0c-0.15,-0.4 -0.64,-0.6 -1.1,-0.47c-0.51,0.14 -0.76,0.61 -0.59,1.07c0.16,0.41 0.64,0.62 1.1,0.48c0.48,-0.15 0.76,-0.65 0.59,-1.08m-2.86,1.64c-0.15,-0.4 -0.64,-0.61 -1.1,-0.47c-0.51,0.14 -0.76,0.6 -0.59,1.07c0.16,0.41 0.64,0.62 1.1,0.48c0.48,-0.15 0.76,-0.65 0.59,-1.08m-3.24,0.44c-0.16,-0.4 -0.65,-0.61 -1.11,-0.47c-0.51,0.14 -0.75,0.6 -0.58,1.07c0.16,0.41 0.63,0.62 1.09,0.48c0.49,-0.15 0.77,-0.65 0.6,-1.08m-2.62,1.73c-0.12,-0.44 -0.57,-0.68 -1.04,-0.57c-0.53,0.13 -0.87,0.65 -0.74,1.13c0.12,0.46 0.51,0.66 1.04,0.53c0.58,-0.14 0.89,-0.58 0.74,-1.09m13.99,-1.57c-0.45,0.06 -0.7,0.1 -0.94,0.13c-2.82,0.3 -5.62,0.79 -8.38,1.76c-1.82,0.63 -3.63,1.28 -5.42,1.94c-1.52,0.58 -2.12,0.59 -2.53,-0.05c-0.3,-0.45 -0.57,-0.93 -0.71,-1.42c-0.07,-0.27 0.04,-0.6 0.28,-0.9c2.16,-2.72 10.01,-5.98 16.52,-6.31c0.63,-0.04 0.94,0.08 1.02,0.37c0.35,1.4 0.5,2.84 0.16,4.48" fill="#f36521" fill-rule="nonzero" id="path420"/>
   </g>
   <g id="g422" transform="matrix(2.10483 0 0 -2.26765 -142.162 -116.076)">
    <path d="m89.21,-136.73c2.53,0.22 1.17,-2.32 0.98,-3.33c-0.71,-3.73 -2.63,-7.31 -4.8,-10.84c0.42,4.71 1.28,13.95 3.82,14.17" fill="#b10f6d" fill-rule="nonzero" id="path424"/>
   </g>
   <g id="g426" transform="matrix(2.10483 0 0 -2.26765 -135.47 -96.5876)">
    <path d="m98.75,-133.04c0.97,-0.62 1.27,-7.56 -1.17,-8.18c-1.98,3.29 -2.25,10.36 1.17,8.18" fill="#b10f6d" fill-rule="nonzero" id="path428"/>
   </g>
   <g id="g430" transform="matrix(2.10483 0 0 -2.26765 -96.8065 -435.078)">
    <path d="m153.85,-197.02c0.89,-0.09 2,-1.99 1.39,-2.73c-0.84,0.31 -1.65,0.84 -2.66,1.45c0.16,0.51 0.73,1.34 1.27,1.28" fill="#f36521" fill-rule="nonzero" id="path432"/>
   </g>
   <g id="g434" transform="matrix(2.10483 0 0 -2.26765 -103.269 -365.353)">
    <path d="m144.64,-183.84c0.53,-0.02 0.88,-0.38 0.88,-0.9c0,-0.56 -0.52,-1.09 -1.06,-1.06c-0.46,0.02 -0.88,0.46 -0.89,0.93c-0.01,0.59 0.48,1.05 1.07,1.03" fill="#b10f6d" fill-rule="nonzero" id="path436"/>
   </g>
   <g id="g438" transform="matrix(2.10483 0 0 -2.26765 -101.199 -369.568)">
    <path d="m147.59,-184.64c0.6,-0.01 0.96,-0.42 0.95,-1.16c-0.05,-0.44 -0.09,-0.94 -0.73,-0.96c-0.59,-0.02 -1.14,0.54 -1.15,1.14c-0.02,0.59 0.36,0.99 0.93,0.98" fill="#b10f6d" fill-rule="nonzero" id="path440"/>
   </g>
   <g id="g442" transform="matrix(2.10483 0 0 -2.26765 -97.2111 -383.434)">
    <path d="m153.28,-187.26c0.74,-0.26 1.45,-0.56 2.22,-0.86c-0.19,-1.57 -1.03,-2.45 -3.03,-3.17c-0.03,1.16 -0.1,2.29 -0.08,3.43c0.01,0.51 0.43,0.76 0.89,0.6" fill="#75b2e4" fill-rule="nonzero" id="path444"/>
   </g>
   <g id="g446" transform="matrix(2.10483 0 0 -2.26765 -98.0443 -446.866)">
    <path d="m152.09,-199.24c0,0 1.52,1.99 2.57,1.49c1.06,-0.49 1.98,-3.75 1.98,-3.75c0,0 -2.4,0.16 -4.55,2.26" fill="#ef3546" fill-rule="nonzero" id="path448"/>
   </g>
   <g id="g450" transform="matrix(2.10483 0 0 -2.26765 -99.6176 -75.8595)">
    <path d="m149.85,-129.13c0,0 -2.02,1.48 -1.55,2.54c0.47,1.06 3.72,2.06 3.72,2.06c0,0 -0.11,-2.41 -2.17,-4.6" fill="#75b2e4" fill-rule="nonzero" id="path452"/>
   </g>
   <g id="g454" transform="matrix(2.10483 0 0 -2.26765 -141.177 31.7357)">
    <path d="m90.61,-108.79c-0.18,-0.04 -0.51,0.06 -0.62,0.32c-0.09,0.22 0.08,1.32 0.14,1.95c0.05,0.59 0.13,1.16 0.2,1.74c0.02,0.12 0.05,0.24 0.09,0.34c0.08,0.21 0.19,0.27 0.4,0.18c0.73,-0.3 1.45,-0.6 2.17,-0.91c0.18,-0.07 0.25,-0.05 0.31,0.17c0.13,0.43 0.25,0.87 0.38,1.29c0.07,0.22 0.15,0.44 0.25,0.64c0.12,0.24 0.27,0.27 0.54,0.13c0.84,-0.43 1.67,-0.87 2.51,-1.31c0.21,-0.11 0.25,-0.09 0.32,0.17c0.22,0.77 0.41,1.55 0.72,2.26c0.02,0.04 0.04,0.09 0.06,0.13c0.17,0.38 0.44,0.41 0.81,0.11c0.14,-0.12 0.16,-0.27 0.13,-0.42c-0.04,-0.18 -0.08,-0.36 -0.14,-0.54c-0.32,-0.93 -0.63,-1.86 -0.96,-2.78c-0.11,-0.33 -0.17,-0.35 -0.49,-0.18c-0.83,0.44 -1.66,0.88 -2.48,1.33c-0.11,0.05 -0.37,0.22 -0.38,0.13c-0.02,-0.11 -0.17,-0.57 -0.27,-0.86c-0.14,-0.43 -0.26,-0.87 -0.4,-1.31c-0.13,-0.41 -0.15,-0.41 -0.56,-0.21c-0.55,0.28 -1.11,0.56 -1.66,0.84c-0.06,0.02 -0.11,0.05 -0.16,0.08c-0.25,0.1 -0.36,0.04 -0.41,-0.23c-0.05,-0.28 -0.07,-0.57 -0.12,-0.85c-0.1,-0.71 -0.21,-1.42 -0.33,-2.13c0,-0.02 0.01,-0.07 -0.05,-0.08" fill="#f36521" fill-rule="evenodd" id="path456"/>
   </g>
   <g id="g458" transform="matrix(2.10483 0 0 -2.26765 -142.123 15.4478)">
    <path d="m89.26,-111.87c-0.07,-0.04 -0.17,-0.05 -0.24,-0.03c-0.32,0.1 -0.49,0.29 -0.45,0.66c0.1,0.83 0.36,1.61 0.57,2.37c0.1,0.32 0.3,0.46 0.61,0.45c0.68,-0.03 1.37,-0.21 2.09,-0.41c0.04,0.09 0.09,0.18 0.14,0.29c0.25,0.52 0.5,1.04 0.75,1.56c0.15,0.32 0.37,0.41 0.7,0.27c0.72,-0.3 1.43,-0.6 2.15,-0.88c0.41,-0.16 0.49,-0.14 0.62,0.26c0.15,0.46 0.28,0.95 0.42,1.42c0.07,0.23 0.15,0.66 0.25,0.7c0.19,0.08 0.4,-0.18 0.59,-0.29c0.24,-0.15 0.29,-0.29 0.21,-0.56c-0.22,-0.67 -0.45,-1.32 -0.67,-1.98c-0.14,-0.39 -0.16,-0.81 -0.51,-0.98c-0.08,-0.04 -1.52,0.53 -2.18,0.84c-0.28,0.13 -0.71,0.42 -0.85,0.4c-0.11,-0.01 -0.21,-0.38 -0.29,-0.55c-0.19,-0.42 -0.38,-0.84 -0.55,-1.27c-0.14,-0.33 -0.3,-0.47 -0.75,-0.35c-0.28,0.07 -0.55,0.2 -0.83,0.27c-0.24,0.06 -0.48,0.1 -0.72,0.12c-0.29,0.03 -0.48,-0.12 -0.56,-0.46c-0.14,-0.58 -0.44,-1.81 -0.5,-1.85" fill="#3968bb" fill-rule="evenodd" id="path460"/>
   </g>
   <g id="g462" transform="matrix(2.10483 0 0 -2.26765 -111.743 -179.579)">
    <path d="m132.56,-148.73c0.02,-0.28 0.21,-0.46 0.45,-0.45c0.23,0.02 0.42,0.25 0.4,0.5c-0.01,0.25 -0.22,0.46 -0.46,0.44c-0.25,-0.01 -0.41,-0.21 -0.39,-0.49m4.64,-15.04c-0.06,0.45 -0.41,0.78 -0.8,0.73c-0.39,-0.04 -0.73,-0.51 -0.69,-0.95c0.03,-0.44 0.38,-0.74 0.81,-0.7c0.46,0.05 0.74,0.42 0.68,0.92m-5.55,18.11c0.01,-0.05 0.03,-0.14 0.05,-0.23c0.12,-0.4 0.45,-0.66 0.85,-0.65c0.39,0.01 0.66,0.24 0.77,0.65c0.12,0.46 0,0.86 -0.31,1.2c-0.32,0.34 -0.83,0.3 -1.13,-0.07c-0.2,-0.25 -0.25,-0.54 -0.23,-0.9m3.39,-1.95c0.12,-1.57 0.05,-3.13 -0.08,-4.71c-0.14,-1.7 0.15,-3.36 0.93,-4.89c0.39,-0.76 0.84,-1.48 1.29,-2.2c0.51,-0.81 0.95,-1.64 1.11,-2.59c0.21,-1.31 0.13,-2.6 -0.25,-3.86c-0.26,-0.87 -0.91,-1.09 -1.68,-0.59c-0.72,0.46 -1.18,1.16 -1.55,1.92c-0.64,1.38 -0.84,2.85 -0.87,4.36c-0.01,1.12 0.01,2.24 0.01,3.36c0,0.62 -0.11,1.21 -0.36,1.78c-0.57,1.33 -1.14,2.65 -1.69,3.99c-0.64,1.59 -1.25,3.19 -1.4,4.93c-0.1,1.08 0.05,2.14 0.4,3.17c0.15,0.44 0.4,0.78 0.89,0.92c0.48,0.13 0.87,0.02 1.18,-0.33c0.8,-0.93 1.5,-1.92 1.71,-3.17c0.12,-0.7 0.24,-1.39 0.36,-2.09" fill="#75b2e4" fill-rule="evenodd" id="path464"/>
   </g>
   <g id="g466" transform="matrix(2.10483 0 0 -2.26765 -110.132 -245.351)">
    <path d="m134.86,-161.16c0.03,-0.35 0.25,-0.55 0.56,-0.51c0.31,0.03 0.49,0.27 0.46,0.62c-0.03,0.35 -0.24,0.53 -0.57,0.5c-0.33,-0.03 -0.48,-0.24 -0.45,-0.61m2.94,-15.96c0.04,-0.54 0.51,-0.94 1.02,-0.89c0.46,0.05 0.8,0.45 0.78,0.92c-0.02,0.53 -0.47,0.96 -0.98,0.93c-0.5,-0.03 -0.86,-0.45 -0.82,-0.96m-3.72,19.42c0.04,-0.65 0.46,-1.09 0.99,-1.05c0.53,0.04 0.92,0.55 0.87,1.15c-0.04,0.62 -0.5,1.06 -1.03,1.01c-0.52,-0.06 -0.88,-0.52 -0.83,-1.11m1.59,-15.43c0.04,0.96 0.06,1.88 0.11,2.8c0.06,0.91 -0.01,1.78 -0.43,2.62c-0.86,1.71 -1.66,3.45 -2.18,5.29c-0.69,2.47 -0.66,4.93 0.16,7.37c0.21,0.62 0.56,1.11 1.12,1.47c0.54,0.35 0.85,0.33 1.29,-0.16c0.55,-0.61 0.96,-1.32 1.14,-2.12c0.23,-1.05 0.4,-2.12 0.61,-3.18c0.42,-2.15 0.1,-4.3 0.02,-6.46c-0.05,-1.28 -0.31,-2.61 0.27,-3.86c0.38,-0.84 0.74,-1.69 1.16,-2.5c0.96,-1.83 1.62,-3.76 2,-5.78c0.08,-0.42 0.11,-0.85 0.1,-1.28c0,-0.28 -0.08,-0.58 -0.19,-0.84c-0.24,-0.52 -0.81,-0.77 -1.3,-0.51c-1.61,0.85 -2.91,2 -3.34,3.85c-0.25,1.09 -0.37,2.21 -0.54,3.29" fill="#3968bb" fill-rule="evenodd" id="path468"/>
   </g>
   <g id="g470" transform="matrix(2.10483 0 0 -2.26765 -112.814 -148.005)">
    <path d="m131.04,-142.76c0,0.56 -0.43,1.01 -0.94,0.99c-0.48,-0.01 -0.89,-0.44 -0.89,-0.95c-0.01,-0.52 0.37,-0.9 0.9,-0.9c0.57,-0.01 0.93,0.33 0.93,0.86m0.99,-1.6c0.04,-1.59 -0.23,-2.56 -0.78,-3.52c-0.43,-0.74 -1.14,-0.73 -1.57,0c-0.12,0.2 -0.22,0.42 -0.29,0.65c-0.58,2.01 -1.27,3.99 -1.41,6.1c-0.06,0.89 -0.03,1.77 0.22,2.62c0.27,0.92 0.94,1.14 1.68,0.55c0.25,-0.2 0.47,-0.48 0.62,-0.77c0.9,-1.76 1.49,-3.62 1.53,-5.63" fill="#246e44" fill-rule="evenodd" id="path472"/>
   </g>
   <g id="g474" transform="matrix(2.10483 0 0 -2.26765 -140.873 -9.89643)">
    <path d="m91.05,-116.66c-1.01,-0.4 -2.03,-0.8 -3.05,-1.19c-0.25,-0.09 -0.51,-0.19 -0.76,-0.21c-0.19,-0.01 -0.42,0.06 -0.54,0.18c-0.06,0.07 0.03,0.35 0.12,0.49c0.26,0.37 0.54,0.72 0.83,1.07c0.42,0.51 0.87,0.99 1.27,1.51c0.29,0.37 0.65,0.56 1.1,0.58c1.51,0.08 3,0.01 4.48,-0.26c0.21,-0.04 0.42,-0.08 0.46,-0.34c0.04,-0.25 -0.15,-0.36 -0.35,-0.43c-1.18,-0.47 -2.37,-0.93 -3.56,-1.4c0,0 0,0 0,0" fill="#fabb18" fill-rule="evenodd" id="path476"/>
   </g>
   <g id="g478" transform="matrix(2.10483 0 0 -2.26765 -139.896 33.3258)">
    <path d="m92.44,-108.49c-0.12,0.25 0.23,0.26 0.32,0.25c0.98,-0.13 1.95,-0.28 2.92,-0.46c0.14,-0.02 0.28,-0.19 0.31,-0.34c0.16,-0.75 0.28,-1.51 0.41,-2.27c0.01,-0.08 0.02,-0.17 0.01,-0.25c-0.04,-0.23 -0.14,-0.24 -0.32,-0.16c-0.16,0.09 -3.46,2.84 -3.65,3.23" fill="#b10f6d" fill-rule="evenodd" id="path480"/>
   </g>
   <g id="g482" transform="matrix(2.10483 0 0 -2.26765 -136.315 22.3421)">
    <path d="m97.54,-110.57c0.16,-0.05 0.69,-1.13 1.02,-1.71c0.22,-0.39 0.4,-0.81 0.61,-1.22c0.05,-0.09 0.06,-0.34 0.01,-0.44c-0.06,-0.1 -0.24,-0.18 -0.33,-0.16c-0.3,0.08 -0.6,0.2 -0.89,0.32c-1.19,0.5 -2.37,1.01 -3.56,1.52c-0.04,0.01 -0.18,0.08 -0.16,0.27c0.03,0.33 2.97,1.52 3.3,1.42" fill="#b10f6d" fill-rule="evenodd" id="path484"/>
   </g>
   <g id="g486" transform="matrix(2.10483 0 0 -2.26765 -116.272 -122.625)">
    <path d="m126.11,-137.97c-1.35,-1.54 -2.85,-2.91 -4.41,-4.21c-0.79,-0.66 -1.54,-1.36 -2.32,-2.04c-0.35,-0.31 -0.73,-0.61 -1.09,-0.91c-0.08,-0.07 -0.18,-0.11 -0.27,-0.16c-0.17,-0.08 -0.35,-0.12 -0.51,0.01c-0.16,0.13 -0.18,0.33 -0.11,0.5c0.15,0.39 0.29,0.8 0.51,1.16c0.34,0.54 0.75,1.04 1.11,1.57c0.25,0.36 0.46,0.74 0.7,1.11c0.5,0.77 1.01,1.55 1.52,2.32c0.34,0.5 0.67,1.01 1.02,1.5c0.72,1.01 1.49,1.97 2.5,2.72c0.54,0.4 1.15,0.63 1.83,0.6c0.25,-0.01 0.52,-0.07 0.74,-0.19c0.45,-0.23 0.61,-0.64 0.51,-1.18c-0.09,-0.49 -0.34,-0.92 -0.62,-1.32c-0.35,-0.51 -0.74,-0.99 -1.11,-1.48" fill="#fabb18" fill-rule="evenodd" id="path488"/>
   </g>
   <g id="g490" transform="matrix(2.10483 0 0 -2.26765 -117.211 -110.424)">
    <path d="m124.77,-135.66c0.2,0.17 0.4,0.34 0.61,0.51c1.21,0.98 2.64,1.44 4.16,1.68c0.45,0.07 0.89,0.01 1.31,-0.18c0.5,-0.22 0.63,-0.58 0.41,-1.09c-0.21,-0.48 -0.57,-0.8 -1.05,-0.97c-0.57,-0.19 -1.15,-0.37 -1.73,-0.54c-1.01,-0.28 -2.04,-0.44 -3.08,-0.46c-0.2,0 -0.41,0.03 -0.61,0.09c-0.27,0.09 -0.36,0.35 -0.24,0.61c0.06,0.12 0.15,0.23 0.22,0.35" fill="#f36521" fill-rule="evenodd" id="path492"/>
   </g>
   <g id="g494" transform="matrix(2.10483 0 0 -2.26765 -100.549 -64.0131)">
    <path d="m148.52,-126.89c-0.11,-0.62 -0.57,-0.92 -1.21,-0.79c-0.66,0.15 -1.09,0.79 -0.93,1.44c0.14,0.58 0.67,0.93 1.23,0.82c0.64,-0.14 1.04,-0.78 0.91,-1.47" fill="#b10f6d" fill-rule="nonzero" id="path496"/>
   </g>
   <g id="g498" transform="matrix(2.10483 0 0 -2.26765 -113.211 0.237289)">
    <path d="m130.47,-114.75c-0.11,-0.62 -0.57,-0.92 -1.21,-0.79c-0.66,0.15 -1.09,0.79 -0.93,1.44c0.14,0.58 0.67,0.93 1.23,0.82c0.64,-0.14 1.04,-0.78 0.91,-1.47" fill="#b10f6d" fill-rule="nonzero" id="path500"/>
   </g>
   <g id="g502" transform="matrix(2.10483 0 0 -2.26765 -102.94 -91.0371)">
    <path d="m145.11,-132c0.81,-0.16 1.28,-0.88 1.1,-1.69c-0.2,-0.94 -0.87,-1.49 -1.63,-1.37c-0.79,0.12 -1.43,1.15 -1.25,2.03c0.14,0.7 0.98,1.18 1.78,1.03" fill="#b10f6d" fill-rule="nonzero" id="path504"/>
   </g>
   <g id="g506" transform="matrix(2.10483 0 0 -2.26765 -115.171 34.8512)">
    <path d="m127.68,-108.2c0.81,-0.16 1.28,-0.88 1.1,-1.69c-0.2,-0.94 -0.87,-1.49 -1.63,-1.37c-0.79,0.12 -1.43,1.15 -1.25,2.03c0.14,0.7 0.98,1.18 1.78,1.03" fill="#b10f6d" fill-rule="nonzero" id="path508"/>
   </g>
   <g id="g510" transform="matrix(2.10483 0 0 -2.26765 -106.233 -103.449)">
    <path d="m140.42,-134.34c0.51,-0.12 0.82,-0.61 0.69,-1.11c-0.11,-0.47 -0.56,-0.74 -1.05,-0.64c-0.5,0.11 -0.82,0.62 -0.7,1.11c0.12,0.47 0.58,0.75 1.06,0.64" fill="#b10f6d" fill-rule="nonzero" id="path512"/>
   </g>
   <g id="g514" transform="matrix(2.10483 0 0 -2.26765 -116.081 23.5333)">
    <path d="m126.38,-110.34c0.51,-0.12 0.82,-0.61 0.69,-1.11c-0.11,-0.47 -0.56,-0.74 -1.05,-0.64c-0.5,0.11 -0.82,0.62 -0.7,1.11c0.12,0.47 0.58,0.75 1.06,0.64" fill="#b10f6d" fill-rule="nonzero" id="path516"/>
   </g>
   <g id="g518" transform="matrix(2.10483 0 0 -2.26765 -113.909 9.59078)">
    <path d="m129.48,-112.98c-0.68,-0.13 -1.12,-0.58 -1.21,-1.32c-0.09,-0.77 -0.05,-1.52 0.14,-2.34c1.53,2.02 1.53,2.02 4.38,1.45c0.01,0.48 -0.01,0.96 0.05,1.43c0.17,1.43 1.18,2.18 2.58,1.85c0.54,-0.12 1.05,-0.44 1.54,-0.73c0.27,-0.15 0.48,-0.41 0.81,-0.71c0.09,0.37 0.14,0.61 0.21,0.84c0.29,0.88 0.48,1.81 0.89,2.63c0.8,1.57 2.39,1.66 3.5,0.29c0.82,-1 1.39,-2.14 1.74,-3.37c0.6,-0.05 0.5,0.29 0.43,0.61c-0.4,1.65 -1.15,3.13 -2.15,4.49c-0.12,0.15 -0.25,0.29 -0.37,0.44c-1.29,1.53 -3.24,1.26 -4.02,-0.6c-0.18,-0.43 -0.23,-0.92 -0.32,-1.39c-0.04,-0.22 0,-0.45 -0.02,-0.67c-0.12,-0.8 -0.75,-1.08 -1.39,-0.6c-0.26,0.19 -0.47,0.44 -0.72,0.63c-1.28,0.96 -2.83,0.45 -3.28,-1.08c-0.1,-0.37 -0.16,-0.75 -0.27,-1.12c-0.21,-0.72 -0.55,-0.88 -1.29,-0.76c-0.4,0.07 -0.84,0.11 -1.23,0.03" fill="#fabb18" fill-rule="nonzero" id="path520"/>
   </g>
   <g id="g522" transform="matrix(2.10483 0 0 -2.26765 -112.944 23.7484)">
    <path d="m130.85,-110.3c-0.58,0.17 -0.82,-0.03 -0.9,-0.63c-0.05,-0.31 -0.08,-0.63 -0.12,-0.94c0.09,-0.05 0.18,-0.09 0.27,-0.13c0.72,0.27 1.44,0.54 2.16,0.82c0.01,0.08 0.02,0.17 0.04,0.27c-0.48,0.21 -0.95,0.47 -1.45,0.61" fill="#fabb18" fill-rule="nonzero" id="path524"/>
   </g>
   <g id="g526" transform="matrix(2.10483 0 0 -2.26765 -110.822 11.5277)">
    <path d="m133.88,-112.61c-0.67,0.26 -0.98,0.06 -1.02,-0.65c-0.05,-0.81 0.08,-1.59 0.53,-2.43c0.84,0.33 1.65,0.66 2.61,1.04c-0.55,0.98 -1.19,1.68 -2.12,2.04" fill="#fabb18" fill-rule="nonzero" id="path528"/>
   </g>
   <g id="g530" transform="matrix(2.10483 0 0 -2.26765 -106.851 11.746)">
    <path d="m139.54,-112.57c-0.43,1.28 -1.01,2.36 -2.2,3.23c-0.84,-1.38 -1.1,-2.79 -1.24,-4.46c1.22,0.44 2.27,0.81 3.44,1.23" fill="#fabb18" fill-rule="nonzero" id="path532"/>
   </g>
   <g id="g534" transform="matrix(2.10483 0 0 -2.26765 -124.929 14.1874)">
    <path d="m113.77,-112.11c-0.95,0.54 -1.3,1.45 -0.79,2.07c0.23,0.29 0.53,0.55 1.1,0.43c0.13,-0.02 0.26,-0.01 0.38,-0.02c1.42,-0.04 1.78,0.22 1.79,1.43c0,0.46 -0.02,0.95 -0.17,1.45c-0.16,0.5 -0.04,0.81 0.26,1.08c0.12,0.1 0.25,0.19 0.32,0.31c0.22,0.41 0.58,0.59 1.24,0.43c0.44,-0.11 0.86,-0.14 1.39,-0.21c-0.15,0.71 -0.21,1.22 -0.37,1.74c-0.25,0.78 -0.07,1.14 0.73,1.26c0.53,0.07 1.06,0.14 1.57,0.24c0.64,0.13 0.72,0.27 0.53,0.94c-0.09,0.35 -0.24,0.7 -0.39,1.06c-0.24,0.61 -0.02,0.96 0.62,0.99c0.74,0.04 1.48,0.07 2.19,0.17c0.77,0.11 0.91,0.37 0.73,1.14c-0.11,0.44 -0.25,0.88 -0.4,1.43c0.57,-0.02 1.13,-0.03 1.7,-0.06c0.55,-0.03 1.11,-0.11 1.66,-0.14c0.8,-0.05 1.08,0.22 1.01,0.92c-0.03,0.25 -0.09,0.52 -0.13,0.78c-0.04,0.25 -0.07,0.51 -0.1,0.81c0.86,-0.14 1.69,-0.29 2.51,-0.42c0.3,-0.05 0.6,-0.1 0.88,-0.1c0.45,-0.01 0.64,0.18 0.45,0.64c-0.11,0.26 -0.21,0.54 -0.26,0.79c-0.07,0.36 0.31,0.49 0.6,0.21c0.45,-0.43 1.03,-0.84 0.98,-1.46c-0.03,-0.42 0.1,-0.9 0.17,-1.48c-0.87,0.19 -1.73,0.35 -2.59,0.57c-1.31,0.34 -1.57,0.22 -1.61,-0.85c-0.02,-0.46 -0.09,-0.91 -0.1,-1.37c0,-0.48 -0.26,-0.62 -0.86,-0.44c-0.6,0.19 -1.21,0.35 -1.81,0.49c-0.98,0.22 -1.27,-0.05 -1.08,-0.91c0.16,-0.66 0.29,-1.32 0.44,-2.05c-0.44,0.06 -0.76,0.09 -1.08,0.13c-0.49,0.07 -0.99,0.16 -1.48,0.22c-1.26,0.13 -1.44,-0.36 -1.03,-1.26c0.24,-0.51 0.28,-1.04 0.41,-1.58c-0.78,-0.06 -1.48,-0.09 -2.16,-0.17c-0.98,-0.12 -1.08,-0.33 -0.71,-1.31c0.08,-0.21 0.16,-0.42 0.21,-0.62c0.3,-1.12 0.18,-1.27 -1.01,-1.31c-0.52,-0.01 -1.04,-0.06 -1.55,-0.11c-0.58,-0.06 -0.81,-0.36 -0.71,-0.93c0.18,-1.14 0.11,-2.18 -0.26,-3.12c-0.12,-0.31 -0.31,-0.41 -0.72,-0.36c-0.52,0.06 -1.04,0.1 -1.55,0.12c-0.92,0.04 -1.12,-0.16 -1.02,-0.97c0.03,-0.19 0.04,-0.39 0.07,-0.6" fill="#85d27c" fill-rule="nonzero" id="path536"/>
   </g>
   <g id="g538" transform="matrix(2.10483 0 0 -2.26765 -118.184 -4.22516)">
    <path d="m123.38,-115.59c-0.87,-0.17 -1.79,0.07 -2.11,0.78c-0.26,0.58 0.25,1.24 0.44,1.84c0.21,0.69 0.53,1.35 0.76,2.03c0.29,0.83 0.93,1.16 1.76,1.15c1.11,0 2.21,-0.08 3.32,-0.14c0.5,-0.03 0.86,-0.28 1.02,-0.75c0.08,-0.23 0.16,-0.46 0.22,-0.7c0.19,-0.91 0.4,-1.82 0.57,-2.74c0.1,-0.53 0.07,-1.06 -0.44,-1.42c-0.11,-0.07 -0.24,-0.15 -0.36,-0.16c-0.55,-0.02 -1.11,-0.02 -1.68,-0.03c-0.12,0.43 -0.21,0.83 -0.34,1.21c-0.13,0.36 -0.27,0.73 -0.48,1.05c-0.54,0.81 -1.49,0.84 -2.1,0.09c-0.47,-0.57 -0.62,-1.25 -0.6,-1.96c0.01,-0.08 0.01,-0.16 0.02,-0.25" fill="#b10f6d" fill-rule="evenodd" id="path540"/>
   </g>
   <g id="g542" transform="matrix(2.10483 0 0 -2.26765 -116.733 -3.76641)">
    <path d="m125.45,-115.5c-0.1,-0.01 -0.17,-0.03 -0.24,-0.03c-0.63,0.01 -1.26,0.03 -1.88,0.05c-0.21,0.63 0.08,1.64 0.56,2.01c0.28,0.22 0.48,0.21 0.74,-0.03c0.05,-0.05 0.1,-0.1 0.14,-0.16c0.35,-0.57 0.55,-1.18 0.68,-1.84" fill="#b10f6d" fill-rule="evenodd" id="path544"/>
   </g>
   <g id="g546" transform="matrix(2.10483 0 0 -2.26765 -109.115 -37.3593)">
    <path d="m136.31,-121.85c0.42,0.18 0.55,0.49 0.38,0.91c-0.17,0.41 -0.57,0.54 -1.06,0.34c-0.41,-0.16 -0.6,-0.56 -0.44,-0.94c0.17,-0.4 0.61,-0.53 1.12,-0.31m-9.78,0.77c0.37,-0.55 0.83,-0.89 1.39,-1.08c0.82,-0.27 1.51,0.02 1.84,0.82c0.18,0.43 0.27,0.89 0.39,1.34c0.04,0.18 0.07,0.37 0.11,0.61c0.15,-0.13 0.26,-0.22 0.38,-0.31c1.04,-0.86 2.3,-0.63 2.97,0.55c0.26,0.45 0.4,0.95 0.42,1.47c0.01,0.36 0.01,0.71 0.01,1.14c0.26,-0.06 0.5,-0.09 0.73,-0.16c0.9,-0.28 1.69,-0.79 2.49,-1.29c1.37,-0.85 2.56,-1.92 3.71,-3.04c0.06,-0.06 0.1,-0.12 0.15,-0.18c0.41,-0.47 0.37,-0.94 -0.17,-1.28c-0.71,-0.44 -1.45,-0.85 -2.19,-1.26c-0.81,-0.45 -1.63,-0.9 -2.46,-1.34c-0.32,-0.17 -0.66,-0.29 -0.98,-0.45c-1.18,-0.56 -2.37,-1.12 -3.55,-1.69c-0.35,-0.16 -0.71,-0.32 -1.06,-0.5c-0.48,-0.26 -1.01,-0.29 -1.54,-0.3c-0.19,0 -0.41,0.07 -0.57,0.18c-0.35,0.22 -0.7,0.46 -1.01,0.75c-0.87,0.8 -1.66,1.68 -2.33,2.67c-0.24,0.35 -0.33,0.73 -0.24,1.15c0.21,0.91 0.78,1.58 1.51,2.2" fill="#b10f6d" fill-rule="evenodd" id="path548"/>
   </g>
   <g id="g550" transform="matrix(2.10483 0 0 -2.26765 -112.165 -53.061)">
    <path d="m131.96,-124.82c1,0.68 2.1,1.21 2.61,1.26c0.05,-0.72 0.02,-1.42 -0.35,-2.07c-0.37,-0.65 -0.99,-0.75 -1.56,-0.25c-0.32,0.28 -0.55,0.63 -0.7,1.06" fill="#b10f6d" fill-rule="evenodd" id="path552"/>
   </g>
   <g id="g554" transform="matrix(2.10483 0 0 -2.26765 -113.961 -42.8698)">
    <path d="m129.4,-122.89c0.77,0.64 1.53,1.26 2.29,1.88c0.03,-0.01 0.06,-0.03 0.09,-0.05c-0.02,-0.29 -0.02,-0.58 -0.08,-0.86c-0.12,-0.51 -0.24,-1.03 -0.42,-1.52c-0.12,-0.36 -0.34,-0.44 -0.7,-0.36c-0.44,0.09 -0.88,0.42 -1.18,0.91" fill="#b10f6d" fill-rule="evenodd" id="path556"/>
   </g>
  </g>
 </g>
</svg>